<?xml version="1.0" encoding="utf-8"?>
<!-- Generator: Adobe Illustrator 26.0.3, SVG Export Plug-In . SVG Version: 6.00 Build 0)  -->
<svg version="1.0" id="Layer_1" xmlns="http://www.w3.org/2000/svg" xmlns:xlink="http://www.w3.org/1999/xlink" x="0px" y="0px"
	 viewBox="0 0 841.89 364.65" style="enable-background:new 0 0 841.89 364.65;" xml:space="preserve">
<style type="text/css">
	.st0{fill:#005CA8;}
	.st1{fill:#005CA6;}
	.st2{fill:#005DA2;}
</style>
<path class="st0" d="M361.87,41.74C336.3,19.09,302.68,5.36,265.83,5.36c-80.02,0-144.9,64.86-144.9,144.88
	c0,80.02,64.88,144.89,144.9,144.89c34.63,0,66.42-12.15,91.33-32.42l-37.91-27.19h44.21V63.93H322.9L361.87,41.74z M265.83,250.05
	c-55.13,0-99.81-44.68-99.81-99.81c0-55.13,44.68-99.83,99.81-99.83c18.37,0,35.57,4.97,50.35,13.63v15.87
	C302,69.74,284.61,63.75,265.83,63.75c-47.76,0-86.5,38.72-86.5,86.5c0,47.76,38.74,86.49,86.5,86.49
	c18.78,0,36.17-5.99,50.35-16.17v14.96h1.51C302.55,244.73,284.82,250.05,265.83,250.05z M308.27,150.24
	c0,23.43-18.99,42.45-42.44,42.45c-23.44,0-42.44-19.02-42.44-42.45c0-23.45,19-42.45,42.44-42.45
	C289.27,107.79,308.27,126.8,308.27,150.24z M540.13,84.36c0-6.34-6.46-20.77-26.35-20.77c-19.84,0-137.93,0-137.93,0v0.34h-1.1
	v171.6h47.27V109.45h11.31v126.08h47.27V109.45h12.33v126.13h47.28V88.51h-0.08V84.36z M720.96,147.73
	c0-49.8-40.37-90.15-90.18-90.15c-49.8,0-90.17,40.35-90.17,90.15c0,49.81,40.37,90.16,90.17,90.16c34.9,0,65.17-19.83,80.16-48.82
	l-34.43-14.88c0,0-22.87,25.18-50,24.41c-38.38-1.1-43.01-32.55-43.01-32.55h135.6C720.31,160.13,720.96,153.99,720.96,147.73z
	 M584.8,125.75c7.68-18.54,25.46-31.53,46.19-31.53c20.71,0,38.5,12.98,46.18,31.53H584.8z"/>
<g>
	<path class="st0" d="M29.76,322.88l-0.4,4.27c-0.77-0.37-1.69-0.67-2.76-0.88c-1.07-0.22-2.04-0.32-2.92-0.32
		c-1.48,0-2.83,0.35-4.05,1.06c-1.21,0.71-2.14,1.72-2.78,3.03c-0.64,1.31-0.95,2.76-0.95,4.35c0,2.58,0.78,4.66,2.33,6.23
		c1.55,1.58,3.58,2.36,6.09,2.36c1.83,0,3.59-0.35,5.27-1.05l0.21,4.45c-0.64,0.2-1.54,0.39-2.68,0.56
		c-1.14,0.17-2.23,0.26-3.26,0.26c-2.3,0-4.4-0.39-6.29-1.15c-2.28-0.93-4.03-2.38-5.27-4.33c-1.24-1.95-1.86-4.32-1.86-7.11
		c0-3.83,1.18-6.92,3.55-9.26c2.36-2.35,5.5-3.52,9.41-3.52C25.65,321.83,27.77,322.18,29.76,322.88z"/>
	<path class="st0" d="M51.13,337.95c0,1.11-0.19,2.24-0.56,3.39c-0.37,1.15-0.94,2.16-1.71,3.04c-0.76,0.88-1.76,1.61-2.99,2.2
		c-1.23,0.59-2.68,0.88-4.33,0.88c-2.83,0-5.14-0.9-6.93-2.71c-1.8-1.8-2.7-4.13-2.7-7c0-2.91,0.9-5.27,2.7-7.09
		c1.8-1.82,4.12-2.73,6.95-2.73c2.83,0,5.13,0.91,6.91,2.73C50.23,332.49,51.13,334.92,51.13,337.95z M36.96,337.66
		c0,2.02,0.44,3.55,1.31,4.59c0.88,1.04,1.94,1.56,3.2,1.56c1.47,0,2.61-0.57,3.43-1.7c0.82-1.13,1.23-2.57,1.23-4.33
		c0-1.59-0.39-3.02-1.17-4.31c-0.78-1.28-1.92-1.93-3.4-1.93c-0.66,0-1.26,0.13-1.79,0.4c-0.53,0.26-0.99,0.65-1.38,1.15
		c-0.4,0.5-0.71,1.07-0.94,1.7C37.12,335.7,36.96,336.65,36.96,337.66z"/>
	<path class="st0" d="M59.46,328.48l0.12,2.82c1.32-2.08,3.31-3.12,5.97-3.12c1,0,1.91,0.15,2.71,0.44c0.8,0.29,1.46,0.69,1.97,1.2
		c0.51,0.51,0.9,1.07,1.16,1.67c0.26,0.61,0.44,1.47,0.56,2.58c0.05,0.53,0.08,1.91,0.09,4.17v8.72h-4.78v-9.26
		c0-2.01-0.18-3.36-0.53-4.06c-0.54-1.05-1.43-1.58-2.68-1.58c-0.78,0-1.52,0.22-2.21,0.67c-0.69,0.44-1.19,1.07-1.51,1.89
		c-0.32,0.82-0.47,2.01-0.47,3.59v8.76h-4.82v-14.83c0-1.27-0.05-2.49-0.16-3.64H59.46z"/>
	<path class="st0" d="M88.07,320.27l-0.39,3.94c-0.56-0.28-1.17-0.42-1.82-0.42c-0.93,0-1.55,0.31-1.84,0.91
		c-0.29,0.61-0.47,1.9-0.52,3.87h4.18v3.61H83.5v14.78h-4.82v-14.78h-3.57v-3.61h3.57c0.04-2.36,0.25-4.09,0.65-5.2
		c0.4-1.11,1.06-1.97,1.99-2.57c0.93-0.61,2.2-0.91,3.81-0.91C86.22,319.88,87.2,320.01,88.07,320.27z"/>
	<path class="st0" d="M106.27,339.2h-12.5c0.04,0.83,0.29,1.61,0.76,2.34c0.47,0.73,1.08,1.28,1.83,1.64
		c0.75,0.36,1.66,0.54,2.75,0.54c0.98,0,1.95-0.14,2.91-0.41c0.96-0.27,1.97-0.72,3.05-1.32l0.05,3.94
		c-0.42,0.31-1.26,0.64-2.51,0.96c-1.25,0.33-2.54,0.49-3.86,0.49c-1.96,0-3.67-0.36-5.12-1.09c-1.45-0.73-2.57-1.85-3.34-3.37
		c-0.77-1.52-1.16-3.27-1.16-5.25c0-1.96,0.37-3.7,1.11-5.2c0.74-1.51,1.82-2.64,3.23-3.41c1.41-0.76,2.97-1.15,4.68-1.15
		c1.82,0,3.38,0.45,4.68,1.36c1.3,0.9,2.2,2.13,2.72,3.69c0.52,1.55,0.78,3.31,0.78,5.27C106.32,338.44,106.3,338.76,106.27,339.2z
		 M93.73,335.87h8.09c-0.07-1.53-0.46-2.67-1.17-3.43c-0.71-0.76-1.66-1.14-2.84-1.14c-1.1,0-1.96,0.33-2.57,1
		C94.36,333.21,93.86,334.4,93.73,335.87z"/>
	<path class="st0" d="M122.48,331.14v-11.08h4.73v26.9h-4.55v-2.7c-0.62,0.91-1.44,1.63-2.45,2.15c-1.02,0.53-2.14,0.79-3.36,0.79
		c-1.02,0-1.92-0.16-2.72-0.48c-0.8-0.32-1.45-0.7-1.96-1.15c-0.51-0.44-0.98-1.01-1.42-1.71c-0.44-0.69-0.8-1.6-1.08-2.73
		c-0.28-1.13-0.42-2.34-0.42-3.63c0-2.88,0.66-5.16,1.99-6.84c1.32-1.67,3.14-2.51,5.44-2.51c1.26,0,2.35,0.24,3.26,0.72
		C120.84,329.34,121.69,330.1,122.48,331.14z M118.17,332.09c-1.11,0-2.05,0.46-2.82,1.39c-0.77,0.93-1.16,2.35-1.16,4.26
		c0,1.98,0.41,3.44,1.24,4.37c0.82,0.93,1.77,1.39,2.85,1.39c1.13,0,2.11-0.48,2.92-1.43c0.82-0.95,1.23-2.37,1.23-4.25
		c0-1.67-0.37-3.04-1.12-4.12C120.56,332.63,119.52,332.09,118.17,332.09z"/>
	<path class="st0" d="M148.19,339.2h-12.5c0.03,0.83,0.29,1.61,0.76,2.34c0.47,0.73,1.08,1.28,1.83,1.64
		c0.75,0.36,1.66,0.54,2.75,0.54c0.98,0,1.95-0.14,2.91-0.41c0.96-0.27,1.97-0.72,3.05-1.32l0.05,3.94
		c-0.42,0.31-1.26,0.64-2.51,0.96c-1.25,0.33-2.54,0.49-3.86,0.49c-1.96,0-3.67-0.36-5.12-1.09c-1.45-0.73-2.57-1.85-3.34-3.37
		c-0.77-1.52-1.16-3.27-1.16-5.25c0-1.96,0.37-3.7,1.11-5.2c0.74-1.51,1.82-2.64,3.23-3.41c1.41-0.76,2.97-1.15,4.68-1.15
		c1.82,0,3.38,0.45,4.68,1.36c1.3,0.9,2.2,2.13,2.72,3.69c0.52,1.55,0.78,3.31,0.78,5.27C148.24,338.44,148.22,338.76,148.19,339.2z
		 M135.65,335.87h8.09c-0.07-1.53-0.46-2.67-1.17-3.43c-0.71-0.76-1.66-1.14-2.84-1.14c-1.1,0-1.96,0.33-2.57,1
		C136.28,333.21,135.78,334.4,135.65,335.87z"/>
	<path class="st0" d="M151.95,328.48h4.4l0.09,4.69c0.32-1.49,0.96-2.68,1.94-3.55c0.98-0.87,2.1-1.3,3.34-1.3
		c0.46,0,0.89,0.04,1.31,0.12v4.52c-0.36-0.2-0.85-0.3-1.47-0.3c-0.86,0-1.59,0.17-2.18,0.51c-0.59,0.34-1.07,0.79-1.45,1.36
		c-0.37,0.56-0.64,1.21-0.79,1.92c-0.15,0.71-0.23,1.68-0.23,2.91v7.6h-4.82v-12.87l-0.12-5.1L151.95,328.48z"/>
	<path class="st0" d="M176.33,346.95l-0.12-2.73c-0.41,0.86-1.15,1.59-2.23,2.18c-1.08,0.59-2.29,0.88-3.62,0.88
		c-1.16,0-2.22-0.24-3.2-0.72c-0.98-0.48-1.74-1.16-2.27-2.06c-0.53-0.89-0.8-1.92-0.8-3.07c0-2.09,0.95-3.66,2.85-4.73
		c1.46-0.81,3.66-1.21,6.6-1.21c0.74,0,1.57,0.04,2.5,0.12c0.01-0.22,0.02-0.39,0.02-0.51c0-1.15-0.34-2.05-1.02-2.69
		c-0.68-0.64-1.72-0.95-3.12-0.95c-1.02,0-2.04,0.2-3.08,0.59c-1.04,0.4-1.92,0.89-2.64,1.47l-0.12-4.15
		c0.62-0.31,1.55-0.61,2.8-0.87c1.25-0.27,2.48-0.4,3.69-0.4c1.55,0,2.87,0.22,3.95,0.65c1.08,0.43,1.96,1.08,2.64,1.96
		c0.47,0.62,0.78,1.43,0.95,2.43c0.16,1,0.24,2.46,0.24,4.38v2.73l0.05,2.7l0.07,2.84l0.09,1.16H176.33z M176.08,338.53
		c-0.6-0.05-1-0.07-1.21-0.07c-1.17,0-2.24,0.11-3.21,0.32c-0.98,0.21-1.68,0.57-2.13,1.08c-0.44,0.51-0.67,1.09-0.67,1.74
		c0,0.7,0.25,1.28,0.75,1.73c0.5,0.45,1.2,0.68,2.08,0.68c0.78,0,1.54-0.23,2.29-0.69c0.74-0.46,1.28-1.06,1.6-1.79
		C175.92,340.79,176.08,339.79,176.08,338.53z"/>
	<path class="st0" d="M197.46,328.9l-0.4,3.85c-0.79-0.42-1.76-0.63-2.91-0.63c-1.48,0-2.72,0.51-3.71,1.54
		c-0.99,1.03-1.49,2.35-1.49,3.96c0,1.05,0.21,2.01,0.64,2.87c0.43,0.87,1.04,1.53,1.84,2c0.8,0.47,1.7,0.7,2.69,0.7
		c0.56,0,1.16-0.08,1.8-0.25c0.64-0.16,1.2-0.36,1.66-0.59l0.21,4.03c-1.31,0.44-2.73,0.66-4.27,0.66c-1.45,0-2.76-0.21-3.92-0.64
		c-1.17-0.42-2.14-1.01-2.92-1.77c-0.78-0.75-1.37-1.58-1.79-2.48c-0.61-1.32-0.91-2.8-0.91-4.45c0-1.87,0.39-3.51,1.16-4.94
		c0.77-1.42,1.91-2.52,3.41-3.29c1.5-0.77,3.11-1.16,4.82-1.16c0.62,0,1.32,0.06,2.11,0.17C196.26,328.6,196.93,328.74,197.46,328.9
		z"/>
	<path class="st0" d="M206.1,325.12h-4.82v-4.52h4.82V325.12z M201.28,346.95v-18.47h4.82v18.47H201.28z"/>
	<path class="st0" d="M229.23,337.95c0,1.11-0.19,2.24-0.56,3.39c-0.37,1.15-0.94,2.16-1.71,3.04c-0.76,0.88-1.76,1.61-2.99,2.2
		c-1.23,0.59-2.68,0.88-4.33,0.88c-2.82,0-5.14-0.9-6.93-2.71c-1.8-1.8-2.7-4.13-2.7-7c0-2.91,0.9-5.27,2.7-7.09
		c1.8-1.82,4.11-2.73,6.95-2.73c2.82,0,5.13,0.91,6.91,2.73C228.34,332.49,229.23,334.92,229.23,337.95z M215.06,337.66
		c0,2.02,0.44,3.55,1.31,4.59c0.88,1.04,1.94,1.56,3.2,1.56c1.47,0,2.61-0.57,3.43-1.7c0.82-1.13,1.23-2.57,1.23-4.33
		c0-1.59-0.39-3.02-1.17-4.31c-0.78-1.28-1.91-1.93-3.4-1.93c-0.67,0-1.26,0.13-1.79,0.4c-0.53,0.26-0.99,0.65-1.38,1.15
		c-0.4,0.5-0.71,1.07-0.95,1.7C215.22,335.7,215.06,336.65,215.06,337.66z M224.82,320.72l-5.06,5.18h-2.82l2.99-5.18H224.82z"/>
	<path class="st0" d="M237.53,328.48l0.12,2.82c1.32-2.08,3.31-3.12,5.97-3.12c1,0,1.91,0.15,2.71,0.44c0.8,0.29,1.46,0.69,1.97,1.2
		c0.51,0.51,0.9,1.07,1.16,1.67c0.26,0.61,0.44,1.47,0.56,2.58c0.05,0.53,0.08,1.91,0.09,4.17v8.72h-4.78v-9.26
		c0-2.01-0.18-3.36-0.53-4.06c-0.54-1.05-1.43-1.58-2.68-1.58c-0.78,0-1.52,0.22-2.21,0.67c-0.69,0.44-1.19,1.07-1.51,1.89
		c-0.31,0.82-0.47,2.01-0.47,3.59v8.76h-4.82v-14.83c0-1.27-0.05-2.49-0.16-3.64H237.53z"/>
	<path class="st0" d="M261.85,346.95l9.79-24.9h5.66l9.84,24.9h-5.57l-2.08-5.69h-10.28l-2.12,5.69H261.85z M270.73,337.24h7.23
		l-3.61-10.21L270.73,337.24z"/>
	<path class="st0" d="M289.78,328.48h4.4l0.09,4.69c0.32-1.49,0.96-2.68,1.94-3.55c0.98-0.87,2.1-1.3,3.34-1.3
		c0.46,0,0.89,0.04,1.31,0.12v4.52c-0.36-0.2-0.85-0.3-1.47-0.3c-0.86,0-1.59,0.17-2.18,0.51c-0.59,0.34-1.07,0.79-1.44,1.36
		c-0.37,0.56-0.64,1.21-0.79,1.92c-0.15,0.71-0.23,1.68-0.23,2.91v7.6h-4.82v-12.87l-0.12-5.1L289.78,328.48z"/>
	<path class="st0" d="M316.26,331.39v-2.91h4.61v16.23c0,1.75-0.15,3.14-0.44,4.18c-0.29,1.03-0.68,1.88-1.16,2.53
		c-0.48,0.65-1.07,1.22-1.77,1.71c-0.7,0.48-1.45,0.86-2.24,1.11c-1.23,0.37-2.57,0.56-4.03,0.56c-2.28,0-4.44-0.43-6.48-1.28
		l0.42-4.2c0.79,0.5,1.72,0.9,2.79,1.19c1.07,0.29,2.05,0.44,2.95,0.44c1.13,0,2.15-0.26,3.05-0.8c0.9-0.53,1.53-1.27,1.88-2.22
		c0.36-0.95,0.55-2.5,0.57-4.67c-0.7,1.26-1.6,2.2-2.7,2.81c-1.1,0.61-2.24,0.92-3.43,0.92c-1.31,0-2.55-0.36-3.72-1.07
		c-1.17-0.71-2.09-1.8-2.74-3.25c-0.65-1.45-0.98-3.19-0.98-5.21c0-2.97,0.73-5.26,2.2-6.88c1.46-1.62,3.27-2.43,5.4-2.43
		c0.97,0,1.88,0.17,2.72,0.51c0.85,0.34,1.54,0.77,2.09,1.3C315.64,330.33,315.98,330.8,316.26,331.39z M307.82,337.08
		c0,2.01,0.39,3.49,1.17,4.45c0.78,0.96,1.75,1.44,2.91,1.44c1.17,0,2.17-0.48,3.01-1.43c0.84-0.95,1.26-2.27,1.26-3.95
		c0-1.75-0.42-3.12-1.26-4.1c-0.84-0.98-1.83-1.47-2.98-1.47c-0.75,0-1.45,0.21-2.1,0.64c-0.65,0.42-1.15,1.04-1.5,1.85
		C307.99,335.31,307.82,336.17,307.82,337.08z"/>
	<path class="st0" d="M341.91,339.2h-12.5c0.03,0.83,0.29,1.61,0.76,2.34c0.47,0.73,1.08,1.28,1.83,1.64
		c0.75,0.36,1.66,0.54,2.75,0.54c0.98,0,1.95-0.14,2.91-0.41c0.96-0.27,1.97-0.72,3.05-1.32l0.05,3.94
		c-0.42,0.31-1.26,0.64-2.51,0.96c-1.25,0.33-2.54,0.49-3.86,0.49c-1.96,0-3.67-0.36-5.12-1.09c-1.45-0.73-2.57-1.85-3.34-3.37
		c-0.77-1.52-1.16-3.27-1.16-5.25c0-1.96,0.37-3.7,1.11-5.2c0.74-1.51,1.82-2.64,3.23-3.41c1.41-0.76,2.97-1.15,4.68-1.15
		c1.82,0,3.38,0.45,4.68,1.36c1.3,0.9,2.2,2.13,2.72,3.69c0.52,1.55,0.78,3.31,0.78,5.27C341.96,338.44,341.95,338.76,341.91,339.2z
		 M329.37,335.87h8.09c-0.07-1.53-0.46-2.67-1.17-3.43c-0.71-0.76-1.66-1.14-2.84-1.14c-1.1,0-1.95,0.33-2.57,1
		C330,333.21,329.5,334.4,329.37,335.87z"/>
	<path class="st0" d="M350.25,328.48l0.12,2.82c1.32-2.08,3.31-3.12,5.97-3.12c1,0,1.91,0.15,2.71,0.44c0.8,0.29,1.46,0.69,1.97,1.2
		c0.51,0.51,0.9,1.07,1.16,1.67c0.26,0.61,0.44,1.47,0.56,2.58c0.05,0.53,0.08,1.91,0.09,4.17v8.72h-4.78v-9.26
		c0-2.01-0.18-3.36-0.53-4.06c-0.54-1.05-1.43-1.58-2.68-1.58c-0.78,0-1.52,0.22-2.21,0.67c-0.69,0.44-1.19,1.07-1.51,1.89
		c-0.31,0.82-0.47,2.01-0.47,3.59v8.76h-4.82v-14.83c0-1.27-0.05-2.49-0.16-3.64H350.25z"/>
	<path class="st0" d="M369.24,332.14h-3.52v-3.57h3.57v-3.78l4.61-1.52v5.31h4.31v3.57h-4.31v6.76c0,1.62,0.14,2.66,0.42,3.12
		c0.48,0.77,1.27,1.15,2.38,1.15c0.56,0,1.13-0.09,1.72-0.28l0.12,3.82c-0.95,0.3-2.03,0.46-3.26,0.46c-0.89,0-1.66-0.1-2.32-0.31
		c-0.66-0.2-1.22-0.49-1.69-0.86c-0.47-0.37-0.84-0.78-1.12-1.24c-0.28-0.46-0.51-1.13-0.7-2c-0.14-0.64-0.21-1.59-0.21-2.85V332.14
		z"/>
	<path class="st0" d="M387.25,325.12h-4.82v-4.52h4.82V325.12z M382.43,346.95v-18.47h4.82v18.47H382.43z"/>
	<path class="st0" d="M396.75,328.48l0.12,2.82c1.32-2.08,3.31-3.12,5.97-3.12c1,0,1.91,0.15,2.71,0.44c0.8,0.29,1.46,0.69,1.97,1.2
		c0.51,0.51,0.9,1.07,1.16,1.67c0.26,0.61,0.44,1.47,0.56,2.58c0.05,0.53,0.08,1.91,0.09,4.17v8.72h-4.78v-9.26
		c0-2.01-0.18-3.36-0.53-4.06c-0.54-1.05-1.43-1.58-2.68-1.58c-0.78,0-1.52,0.22-2.21,0.67c-0.69,0.44-1.19,1.07-1.51,1.89
		c-0.31,0.82-0.47,2.01-0.47,3.59v8.76h-4.82v-14.83c0-1.27-0.05-2.49-0.16-3.64H396.75z"/>
	<path class="st0" d="M425.23,346.95l-0.12-2.73c-0.41,0.86-1.15,1.59-2.23,2.18c-1.08,0.59-2.29,0.88-3.62,0.88
		c-1.16,0-2.22-0.24-3.2-0.72c-0.98-0.48-1.74-1.16-2.27-2.06c-0.53-0.89-0.8-1.92-0.8-3.07c0-2.09,0.95-3.66,2.86-4.73
		c1.46-0.81,3.66-1.21,6.6-1.21c0.74,0,1.57,0.04,2.5,0.12c0.01-0.22,0.02-0.39,0.02-0.51c0-1.15-0.34-2.05-1.02-2.69
		c-0.68-0.64-1.72-0.95-3.12-0.95c-1.02,0-2.04,0.2-3.08,0.59c-1.04,0.4-1.92,0.89-2.64,1.47l-0.12-4.15
		c0.62-0.31,1.55-0.61,2.8-0.87c1.25-0.27,2.48-0.4,3.7-0.4c1.55,0,2.87,0.22,3.95,0.65c1.08,0.43,1.96,1.08,2.64,1.96
		c0.47,0.62,0.78,1.43,0.95,2.43c0.16,1,0.25,2.46,0.25,4.38v2.73l0.05,2.7l0.07,2.84l0.09,1.16H425.23z M424.98,338.53
		c-0.6-0.05-1-0.07-1.21-0.07c-1.17,0-2.24,0.11-3.21,0.32c-0.97,0.21-1.68,0.57-2.13,1.08c-0.44,0.51-0.67,1.09-0.67,1.74
		c0,0.7,0.25,1.28,0.75,1.73c0.5,0.45,1.2,0.68,2.08,0.68c0.78,0,1.54-0.23,2.29-0.69c0.74-0.46,1.28-1.06,1.6-1.79
		C424.82,340.79,424.98,339.79,424.98,338.53z"/>
	<path class="st0" d="M456.45,331.14v-11.08h4.73v26.9h-4.55v-2.7c-0.62,0.91-1.44,1.63-2.45,2.15c-1.01,0.53-2.14,0.79-3.36,0.79
		c-1.02,0-1.92-0.16-2.72-0.48c-0.8-0.32-1.45-0.7-1.96-1.15c-0.51-0.44-0.98-1.01-1.42-1.71c-0.44-0.69-0.8-1.6-1.08-2.73
		c-0.28-1.13-0.42-2.34-0.42-3.63c0-2.88,0.66-5.16,1.99-6.84c1.32-1.67,3.14-2.51,5.44-2.51c1.26,0,2.35,0.24,3.26,0.72
		C454.8,329.34,455.65,330.1,456.45,331.14z M452.14,332.09c-1.11,0-2.05,0.46-2.82,1.39c-0.77,0.93-1.15,2.35-1.15,4.26
		c0,1.98,0.41,3.44,1.23,4.37c0.82,0.93,1.77,1.39,2.85,1.39c1.13,0,2.11-0.48,2.92-1.43c0.82-0.95,1.23-2.37,1.23-4.25
		c0-1.67-0.37-3.04-1.12-4.12C454.53,332.63,453.48,332.09,452.14,332.09z"/>
	<path class="st0" d="M482.15,339.2h-12.5c0.03,0.83,0.29,1.61,0.76,2.34c0.47,0.73,1.08,1.28,1.83,1.64
		c0.75,0.36,1.66,0.54,2.75,0.54c0.98,0,1.95-0.14,2.91-0.41c0.96-0.27,1.97-0.72,3.05-1.32l0.05,3.94
		c-0.42,0.31-1.26,0.64-2.51,0.96c-1.26,0.33-2.54,0.49-3.86,0.49c-1.96,0-3.67-0.36-5.12-1.09c-1.45-0.73-2.56-1.85-3.33-3.37
		c-0.77-1.52-1.16-3.27-1.16-5.25c0-1.96,0.37-3.7,1.11-5.2c0.74-1.51,1.82-2.64,3.23-3.41c1.41-0.76,2.97-1.15,4.67-1.15
		c1.82,0,3.38,0.45,4.68,1.36c1.3,0.9,2.2,2.13,2.72,3.69c0.52,1.55,0.78,3.31,0.78,5.27C482.21,338.44,482.19,338.76,482.15,339.2z
		 M469.62,335.87h8.09c-0.07-1.53-0.46-2.67-1.17-3.43c-0.71-0.76-1.66-1.14-2.84-1.14c-1.1,0-1.95,0.33-2.57,1
		C470.25,333.21,469.74,334.4,469.62,335.87z"/>
	<path class="st0" d="M496.09,346.95v-26.9h4.81v26.9H496.09z"/>
	<path class="st0" d="M516.93,346.95l-0.12-2.73c-0.41,0.86-1.15,1.59-2.23,2.18c-1.08,0.59-2.28,0.88-3.62,0.88
		c-1.15,0-2.22-0.24-3.2-0.72c-0.98-0.48-1.74-1.16-2.27-2.06c-0.53-0.89-0.8-1.92-0.8-3.07c0-2.09,0.95-3.66,2.85-4.73
		c1.46-0.81,3.66-1.21,6.6-1.21c0.74,0,1.57,0.04,2.5,0.12c0.01-0.22,0.02-0.39,0.02-0.51c0-1.15-0.34-2.05-1.02-2.69
		c-0.68-0.64-1.72-0.95-3.12-0.95c-1.02,0-2.04,0.2-3.08,0.59c-1.04,0.4-1.92,0.89-2.64,1.47l-0.12-4.15
		c0.62-0.31,1.55-0.61,2.8-0.87c1.25-0.27,2.48-0.4,3.69-0.4c1.55,0,2.87,0.22,3.95,0.65c1.08,0.43,1.96,1.08,2.64,1.96
		c0.47,0.62,0.78,1.43,0.95,2.43c0.16,1,0.24,2.46,0.24,4.38v2.73l0.05,2.7l0.07,2.84l0.09,1.16H516.93z M516.69,338.53
		c-0.59-0.05-1-0.07-1.21-0.07c-1.17,0-2.24,0.11-3.21,0.32c-0.98,0.21-1.69,0.57-2.13,1.08c-0.44,0.51-0.66,1.09-0.66,1.74
		c0,0.7,0.25,1.28,0.75,1.73c0.5,0.45,1.2,0.68,2.08,0.68c0.78,0,1.54-0.23,2.28-0.69c0.74-0.46,1.28-1.06,1.6-1.79
		C516.52,340.79,516.69,339.79,516.69,338.53z"/>
	<path class="st0" d="M536.16,346.95v-24.9h8.05l5.97,18.93l6.15-18.93h7.88v24.9h-4.76V326.2l-7.06,20.75h-4.69l-6.9-20.75v20.75
		H536.16z"/>
	<path class="st0" d="M585.08,339.2h-12.5c0.03,0.83,0.29,1.61,0.76,2.34c0.47,0.73,1.08,1.28,1.83,1.64
		c0.75,0.36,1.66,0.54,2.75,0.54c0.98,0,1.95-0.14,2.91-0.41c0.95-0.27,1.97-0.72,3.05-1.32l0.05,3.94
		c-0.42,0.31-1.26,0.64-2.51,0.96c-1.25,0.33-2.54,0.49-3.86,0.49c-1.96,0-3.67-0.36-5.12-1.09c-1.45-0.73-2.56-1.85-3.33-3.37
		c-0.77-1.52-1.16-3.27-1.16-5.25c0-1.96,0.37-3.7,1.11-5.2c0.74-1.51,1.82-2.64,3.23-3.41c1.41-0.76,2.97-1.15,4.68-1.15
		c1.82,0,3.38,0.45,4.67,1.36c1.3,0.9,2.2,2.13,2.72,3.69c0.52,1.55,0.78,3.31,0.78,5.27C585.14,338.44,585.12,338.76,585.08,339.2z
		 M572.55,335.87h8.09c-0.07-1.53-0.46-2.67-1.17-3.43c-0.71-0.76-1.66-1.14-2.84-1.14c-1.1,0-1.96,0.33-2.57,1
		C573.18,333.21,572.68,334.4,572.55,335.87z"/>
	<path class="st0" d="M601.3,331.14v-11.08h4.73v26.9h-4.55v-2.7c-0.62,0.91-1.44,1.63-2.45,2.15c-1.02,0.53-2.14,0.79-3.36,0.79
		c-1.02,0-1.92-0.16-2.72-0.48c-0.8-0.32-1.45-0.7-1.96-1.15c-0.51-0.44-0.98-1.01-1.42-1.71c-0.44-0.69-0.8-1.6-1.08-2.73
		c-0.28-1.13-0.42-2.34-0.42-3.63c0-2.88,0.66-5.16,1.99-6.84c1.32-1.67,3.14-2.51,5.44-2.51c1.26,0,2.35,0.24,3.26,0.72
		C599.65,329.34,600.51,330.1,601.3,331.14z M596.99,332.09c-1.11,0-2.05,0.46-2.82,1.39c-0.77,0.93-1.16,2.35-1.16,4.26
		c0,1.98,0.41,3.44,1.23,4.37c0.82,0.93,1.77,1.39,2.84,1.39c1.13,0,2.11-0.48,2.92-1.43c0.82-0.95,1.23-2.37,1.23-4.25
		c0-1.67-0.37-3.04-1.12-4.12C599.38,332.63,598.33,332.09,596.99,332.09z"/>
	<path class="st0" d="M615.8,325.12h-4.81v-4.52h4.81V325.12z M610.98,346.95v-18.47h4.81v18.47H610.98z"/>
	<path class="st0" d="M631.85,346.95l-0.12-2.73c-0.41,0.86-1.15,1.59-2.23,2.18c-1.08,0.59-2.29,0.88-3.62,0.88
		c-1.15,0-2.22-0.24-3.2-0.72c-0.98-0.48-1.74-1.16-2.27-2.06c-0.53-0.89-0.8-1.92-0.8-3.07c0-2.09,0.95-3.66,2.86-4.73
		c1.46-0.81,3.66-1.21,6.6-1.21c0.74,0,1.57,0.04,2.5,0.12c0.01-0.22,0.02-0.39,0.02-0.51c0-1.15-0.34-2.05-1.02-2.69
		c-0.68-0.64-1.72-0.95-3.12-0.95c-1.01,0-2.04,0.2-3.08,0.59c-1.04,0.4-1.92,0.89-2.64,1.47l-0.12-4.15
		c0.62-0.31,1.55-0.61,2.8-0.87c1.25-0.27,2.48-0.4,3.69-0.4c1.55,0,2.87,0.22,3.95,0.65c1.08,0.43,1.96,1.08,2.64,1.96
		c0.47,0.62,0.78,1.43,0.95,2.43c0.16,1,0.25,2.46,0.25,4.38v2.73l0.05,2.7l0.07,2.84l0.09,1.16H631.85z M631.61,338.53
		c-0.6-0.05-1-0.07-1.21-0.07c-1.17,0-2.24,0.11-3.21,0.32c-0.98,0.21-1.68,0.57-2.13,1.08c-0.44,0.51-0.67,1.09-0.67,1.74
		c0,0.7,0.25,1.28,0.75,1.73c0.5,0.45,1.2,0.68,2.08,0.68c0.78,0,1.54-0.23,2.28-0.69c0.74-0.46,1.28-1.06,1.6-1.79
		C631.45,340.79,631.61,339.79,631.61,338.53z"/>
	<path class="st0" d="M645.23,328.48l0.12,2.82c1.32-2.08,3.31-3.12,5.97-3.12c1,0,1.91,0.15,2.71,0.44c0.8,0.29,1.46,0.69,1.97,1.2
		c0.51,0.51,0.9,1.07,1.16,1.67c0.26,0.61,0.44,1.47,0.56,2.58c0.05,0.53,0.08,1.91,0.09,4.17v8.72h-4.78v-9.26
		c0-2.01-0.18-3.36-0.53-4.06c-0.54-1.05-1.43-1.58-2.68-1.58c-0.78,0-1.52,0.22-2.21,0.67c-0.69,0.44-1.19,1.07-1.51,1.89
		c-0.31,0.82-0.47,2.01-0.47,3.59v8.76h-4.82v-14.83c0-1.27-0.05-2.49-0.16-3.64H645.23z"/>
	<path class="st0" d="M673.71,346.95l-0.12-2.73c-0.41,0.86-1.15,1.59-2.23,2.18c-1.08,0.59-2.29,0.88-3.62,0.88
		c-1.15,0-2.22-0.24-3.2-0.72c-0.98-0.48-1.74-1.16-2.27-2.06c-0.53-0.89-0.8-1.92-0.8-3.07c0-2.09,0.95-3.66,2.85-4.73
		c1.46-0.81,3.66-1.21,6.6-1.21c0.74,0,1.57,0.04,2.5,0.12c0.01-0.22,0.02-0.39,0.02-0.51c0-1.15-0.34-2.05-1.01-2.69
		c-0.68-0.64-1.72-0.95-3.12-0.95c-1.02,0-2.04,0.2-3.08,0.59c-1.04,0.4-1.92,0.89-2.64,1.47l-0.12-4.15
		c0.62-0.31,1.55-0.61,2.8-0.87c1.25-0.27,2.48-0.4,3.7-0.4c1.55,0,2.87,0.22,3.95,0.65c1.08,0.43,1.96,1.08,2.63,1.96
		c0.47,0.62,0.78,1.43,0.95,2.43c0.17,1,0.25,2.46,0.25,4.38v2.73l0.05,2.7l0.07,2.84l0.09,1.16H673.71z M673.46,338.53
		c-0.59-0.05-1-0.07-1.21-0.07c-1.17,0-2.24,0.11-3.21,0.32c-0.98,0.21-1.68,0.57-2.13,1.08c-0.44,0.51-0.67,1.09-0.67,1.74
		c0,0.7,0.25,1.28,0.75,1.73c0.5,0.45,1.2,0.68,2.08,0.68c0.78,0,1.54-0.23,2.29-0.69c0.74-0.46,1.27-1.06,1.6-1.79
		C673.3,340.79,673.46,339.79,673.46,338.53z"/>
	<path class="st0" d="M693.05,346.95v-24.78h14.73v4.15h-9.67v5.9h8.84v4.06h-8.84v6.52h9.75v4.15H693.05z"/>
	<path class="st0" d="M716.85,328.48l0.12,2.82c0.61-0.98,1.42-1.74,2.44-2.29c1.01-0.54,2.14-0.81,3.36-0.81
		c1.37,0,2.51,0.33,3.43,1c0.7,0.51,1.28,1.27,1.73,2.28c0.28-0.6,0.62-1.09,1.03-1.47c0.58-0.56,1.31-1.01,2.19-1.35
		c0.87-0.34,1.77-0.51,2.7-0.51c1.1,0,2.05,0.23,2.87,0.7c0.82,0.47,1.44,1.07,1.87,1.8c0.32,0.54,0.57,1.36,0.75,2.45
		c0.13,0.72,0.19,1.79,0.19,3.19v10.66h-4.82v-10.17c0-1.32-0.09-2.26-0.28-2.83c-0.19-0.57-0.51-1.01-0.97-1.32
		c-0.46-0.31-0.97-0.46-1.52-0.46c-0.63,0-1.24,0.21-1.82,0.64c-0.59,0.43-1.02,1.07-1.3,1.93c-0.28,0.86-0.42,1.69-0.42,2.5v9.72
		h-4.81v-11.08c0-1.25-0.26-2.18-0.79-2.78c-0.53-0.61-1.18-0.91-1.98-0.91c-0.92,0-1.75,0.45-2.49,1.34
		c-0.73,0.89-1.1,2.29-1.1,4.18v9.26h-4.82v-13.9l-0.07-3.06c-0.01-0.54-0.04-1.04-0.09-1.51H716.85z"/>
	<path class="st0" d="M749.21,344.41v10.14h-4.78v-20.68l-0.07-3.61l-0.05-1.28l-0.03-0.51h4.64l0.09,2.87
		c0.63-1,1.44-1.79,2.44-2.35c1-0.57,2.14-0.85,3.42-0.85c2.11,0,3.83,0.67,5.15,2.01c1.62,1.67,2.43,4.1,2.43,7.28
		c0,1.91-0.29,3.62-0.87,5.12c-0.58,1.49-1.47,2.64-2.66,3.44c-1.19,0.8-2.6,1.2-4.24,1.2c-1.26,0-2.35-0.25-3.27-0.75
		C750.48,345.94,749.75,345.27,749.21,344.41z M749.21,337.83c0,1.83,0.41,3.23,1.24,4.19c0.82,0.96,1.8,1.44,2.92,1.44
		c1.08,0,2.04-0.5,2.87-1.5c0.83-1,1.24-2.45,1.24-4.35c0-1.87-0.41-3.31-1.24-4.34c-0.64-0.79-1.51-1.19-2.59-1.19
		c-1.24,0-2.28,0.49-3.14,1.48C749.64,334.55,749.21,335.98,749.21,337.83z"/>
	<path class="st0" d="M766.23,328.48h4.39l0.09,4.69c0.32-1.49,0.96-2.68,1.94-3.55c0.98-0.87,2.09-1.3,3.34-1.3
		c0.46,0,0.89,0.04,1.32,0.12v4.52c-0.36-0.2-0.85-0.3-1.47-0.3c-0.87,0-1.59,0.17-2.18,0.51c-0.59,0.34-1.07,0.79-1.44,1.36
		c-0.37,0.56-0.64,1.21-0.79,1.92c-0.15,0.71-0.23,1.68-0.23,2.91v7.6h-4.82v-12.87l-0.12-5.1L766.23,328.48z"/>
	<path class="st0" d="M796.4,339.2h-12.5c0.03,0.83,0.29,1.61,0.76,2.34c0.47,0.73,1.08,1.28,1.83,1.64
		c0.75,0.36,1.66,0.54,2.75,0.54c0.98,0,1.95-0.14,2.91-0.41c0.96-0.27,1.97-0.72,3.05-1.32l0.05,3.94
		c-0.42,0.31-1.26,0.64-2.51,0.96c-1.26,0.33-2.54,0.49-3.86,0.49c-1.96,0-3.67-0.36-5.12-1.09c-1.45-0.73-2.56-1.85-3.34-3.37
		c-0.77-1.52-1.15-3.27-1.15-5.25c0-1.96,0.37-3.7,1.11-5.2c0.74-1.51,1.82-2.64,3.23-3.41c1.41-0.76,2.97-1.15,4.68-1.15
		c1.82,0,3.38,0.45,4.67,1.36c1.3,0.9,2.2,2.13,2.72,3.69c0.52,1.55,0.78,3.31,0.78,5.27C796.46,338.44,796.44,338.76,796.4,339.2z
		 M783.87,335.87h8.09c-0.07-1.53-0.46-2.67-1.17-3.43c-0.71-0.76-1.66-1.14-2.84-1.14c-1.1,0-1.96,0.33-2.57,1
		C784.5,333.21,783.99,334.4,783.87,335.87z"/>
	<path class="st0" d="M811.59,328.81l-0.33,3.66c-1.46-0.56-2.78-0.84-3.96-0.84c-1.13,0-1.97,0.21-2.5,0.62
		c-0.54,0.42-0.81,0.87-0.81,1.38c0,0.39,0.16,0.72,0.48,1c0.32,0.28,0.6,0.43,0.85,0.45c0.06,0.01,0.12,0.02,0.17,0.03l3.36,1.17
		c1.11,0.39,1.97,1.01,2.59,1.89c0.62,0.87,0.93,1.94,0.93,3.19c0,1.04-0.19,1.91-0.58,2.6c-0.38,0.69-0.87,1.27-1.46,1.74
		c-0.59,0.47-1.18,0.81-1.76,1.03c-0.93,0.36-2.14,0.54-3.63,0.54c-1.87,0-3.77-0.27-5.69-0.82l0.3-3.99
		c1.86,0.77,3.41,1.16,4.66,1.16c1.17,0,2.05-0.23,2.66-0.7c0.43-0.33,0.65-0.8,0.65-1.43c0-0.41-0.1-0.74-0.3-1
		c-0.2-0.26-0.51-0.45-0.95-0.59l-2.08-0.67c-1.89-0.61-3.19-1.34-3.89-2.21c-0.7-0.86-1.05-1.95-1.05-3.26
		c0-1.57,0.57-2.85,1.72-3.83c1.44-1.23,3.33-1.84,5.67-1.84C808.16,328.09,809.8,328.34,811.59,328.81z"/>
	<path class="st0" d="M827.19,346.95l-0.12-2.73c-0.41,0.86-1.15,1.59-2.23,2.18c-1.08,0.59-2.28,0.88-3.62,0.88
		c-1.16,0-2.22-0.24-3.2-0.72c-0.98-0.48-1.74-1.16-2.27-2.06c-0.53-0.89-0.8-1.92-0.8-3.07c0-2.09,0.95-3.66,2.85-4.73
		c1.46-0.81,3.66-1.21,6.6-1.21c0.74,0,1.57,0.04,2.5,0.12c0.01-0.22,0.02-0.39,0.02-0.51c0-1.15-0.34-2.05-1.02-2.69
		c-0.68-0.64-1.71-0.95-3.12-0.95c-1.01,0-2.04,0.2-3.08,0.59c-1.04,0.4-1.92,0.89-2.64,1.47l-0.12-4.15
		c0.62-0.31,1.55-0.61,2.8-0.87c1.25-0.27,2.48-0.4,3.7-0.4c1.55,0,2.87,0.22,3.95,0.65c1.08,0.43,1.96,1.08,2.64,1.96
		c0.47,0.62,0.78,1.43,0.95,2.43c0.16,1,0.25,2.46,0.25,4.38v2.73l0.05,2.7l0.07,2.84l0.09,1.16H827.19z M826.94,338.53
		c-0.6-0.05-1-0.07-1.21-0.07c-1.17,0-2.24,0.11-3.21,0.32c-0.97,0.21-1.68,0.57-2.13,1.08c-0.44,0.51-0.67,1.09-0.67,1.74
		c0,0.7,0.25,1.28,0.75,1.73c0.5,0.45,1.2,0.68,2.08,0.68c0.78,0,1.54-0.23,2.29-0.69c0.74-0.46,1.27-1.06,1.6-1.79
		C826.78,340.79,826.94,339.79,826.94,338.53z"/>
</g>
<rect x="978.99" y="-88.64" class="st0" width="53" height="53"/>
<rect x="978.99" y="-166.14" class="st1" width="53" height="53"/>
<rect x="978.99" y="-7.14" class="st1" width="53" height="53"/>
<rect x="978.99" y="78.36" class="st2" width="53" height="53"/>
<text transform="matrix(1 0 0 1 1043.9874 -150.5157)"><tspan x="0" y="0" style="font-family:'MyriadPro-Regular'; font-size:12px;">R 0</tspan><tspan x="0" y="14.4" style="font-family:'MyriadPro-Regular'; font-size:12px;">G 92</tspan><tspan x="0" y="28.8" style="font-family:'MyriadPro-Regular'; font-size:12px;">B 164</tspan></text>
<text transform="matrix(1 0 0 1 1043.9874 -77.5182)"><tspan x="0" y="0" style="font-family:'MyriadPro-Regular'; font-size:12px;">C 100</tspan><tspan x="0" y="14.4" style="font-family:'MyriadPro-Regular'; font-size:12px;">M 60</tspan><tspan x="0" y="28.8" style="font-family:'MyriadPro-Regular'; font-size:12px;">Y 0</tspan><tspan x="0" y="43.2" style="font-family:'MyriadPro-Regular'; font-size:12px;">K 0</tspan></text>
<text transform="matrix(1 0 0 1 1043.0554 22.8842)" style="font-family:'MyriadPro-Regular'; font-size:12px;">#005CA4</text>
<text transform="matrix(1 0 0 1 1043.0554 107.3843)" style="font-family:'MyriadPro-Regular'; font-size:12px;">PANTONE P 106-16 C</text>
</svg>
